<?xml version="1.0" encoding="iso-8859-1"?>
<!-- Generator: Adobe Illustrator 19.0.0, SVG Export Plug-In . SVG Version: 6.00 Build 0)  -->
<svg version="1.1" id="Layer_1" xmlns="http://www.w3.org/2000/svg" xmlns:xlink="http://www.w3.org/1999/xlink" x="0px" y="0px"
	 viewBox="0 0 512.001 512.001" style="enable-background:new 0 0 512.001 512.001;" xml:space="preserve">
<path style="fill:#6DC82A;" d="M216.416,273.702c-13.907-66.248-71.328-110.267-128.253-98.317s-91.801,75.342-77.894,141.59
	c8.584,40.891,33.749,73.305,65.14,89.324h-23.36c-2.423-5.466-7.888-9.285-14.253-9.285c-8.611,0-15.593,6.981-15.593,15.593
	s6.981,15.593,15.593,15.593c0.137,0,0.271-0.017,0.408-0.02c0.135,0.006,0.268,0.02,0.405,0.02h123.71
	C167.219,428.199,228.189,329.791,216.416,273.702z"/>
<path style="fill:#5EAC24;" d="M216.416,273.702c-13.907-66.248-71.328-110.266-128.253-98.317
	c-6.138,1.289-12.019,3.178-17.611,5.603c7.62,71.284,23.853,170.387,57.99,239.759c-0.613,0.374-1.241,0.759-1.889,1.156
	c-3.66,2.24-7.245,4.458-10.205,6.298h45.871C167.219,428.199,228.189,329.791,216.416,273.702z"/>
<path style="fill:#6DC82A;" d="M501.305,316.974c13.907-66.249-20.967-129.641-77.893-141.591
	c-56.926-11.949-114.347,32.069-128.253,98.317c-11.774,56.09,49.196,154.498,54.098,154.498h123.71c0.136,0,0.269-0.014,0.405-0.02
	c0.137,0.003,0.27,0.02,0.408,0.02c8.611,0,15.593-6.981,15.593-15.593c0-8.611-6.981-15.593-15.593-15.593
	c-6.365,0-11.829,3.819-14.253,9.285h-23.36C467.558,390.28,492.722,357.866,501.305,316.974z"/>
<path style="fill:#5EAC24;" d="M295.158,273.702c13.907-66.248,71.328-110.266,128.253-98.317
	c6.138,1.289,12.019,3.178,17.611,5.603c-7.62,71.284-23.853,170.387-57.99,239.759c0.613,0.374,1.241,0.759,1.889,1.156
	c3.66,2.24,7.245,4.458,10.205,6.298h-45.871C344.355,428.199,283.385,329.791,295.158,273.702z"/>
<polygon style="fill:#4E901E;" points="378.144,190.887 145.46,190.887 175.954,428.199 344.262,428.199 "/>
<path style="fill:#91DC5A;" d="M355.706,428.651c67.411-121.137,71.525-337.186,71.525-337.186c0-34.83-28.236-63.066-63.066-63.066
	c-33.713,0-61.246,26.454-62.978,59.736h-90.801c-1.732-33.282-29.264-59.736-62.978-59.736c-34.83,0-63.066,28.236-63.066,63.066
	c0,0,6.586,227.288,71.525,337.186c0-1.249-35.762,21.23-35.762,21.23h40.757l-7.493,26.225l33.718-14.986l6.244,22.479
	l25.395-41.957c0,0,2.625-4.25,2.686-6.33c0.051-1.746-1.296-4.585-1.296-4.585c-11.681-33.575-68.794-211.88,35.682-211.88
	c107.105,0,48.309,177.091,35.864,211.527c0,0-1.511,3.793-1.511,4.939c0,2.132,2.704,6.346,2.704,6.346l25.386,41.941l6.244-22.479
	l33.718,14.986l-7.493-26.225h40.757C391.469,449.881,355.706,427.401,355.706,428.651z"/>
<circle style="fill:#6DC82A;" cx="147.496" cy="96.023" r="47.092"/>
<path style="fill:#5EAC24;" d="M147.493,132.949c-20.363,0-36.93-16.567-36.93-36.93s16.567-36.93,36.93-36.93
	s36.93,16.567,36.93,36.93S167.856,132.949,147.493,132.949z"/>
<circle style="fill:#6DC82A;" cx="364.018" cy="96.023" r="47.092"/>
<g>
	<path style="fill:#5EAC24;" d="M364.016,132.949c-20.363,0-36.93-16.567-36.93-36.93s16.567-36.93,36.93-36.93
		s36.93,16.567,36.93,36.93S384.38,132.949,364.016,132.949z"/>
	<path style="fill:#5EAC24;" d="M446.87,367.683c-1.82,0-3.646-0.647-5.104-1.963c-3.127-2.82-3.375-7.641-0.554-10.767
		c3.249-3.601,6.265-7.559,8.965-11.76c2.277-3.541,6.993-4.569,10.534-2.292c3.542,2.276,4.568,6.993,2.292,10.534
		c-3.147,4.896-6.67,9.515-10.47,13.73C451.028,366.834,448.953,367.683,446.87,367.683z"/>
	<path style="fill:#5EAC24;" d="M471.471,318.334c-0.519,0-1.046-0.054-1.574-0.165c-4.121-0.865-6.759-4.906-5.894-9.027
		c4.686-22.322,2.05-44.745-7.421-63.139c-1.927-3.744-0.455-8.34,3.288-10.268c3.746-1.927,8.341-0.453,10.267,3.287
		c11.07,21.499,14.189,47.513,8.787,73.252C478.169,315.869,475.001,318.334,471.471,318.334z"/>
</g>
<path d="M175.954,96.019c0-3.168-2.592-5.76-5.76-5.76h-45.401c-3.168,0-5.76,2.592-5.76,5.76c0,3.168,2.592,5.76,5.76,5.76h45.401
	C173.362,101.779,175.954,99.187,175.954,96.019z"/>
<path d="M341.316,101.779h45.401c3.168,0,5.76-2.592,5.76-5.76c0-3.168-2.592-5.76-5.76-5.76h-45.401c-3.168,0-5.76,2.592-5.76,5.76
	C335.556,99.187,338.148,101.779,341.316,101.779z"/>
<path d="M385.772,173.482c0.03-4.21-3.358-7.647-7.568-7.678c-0.018,0-0.037,0-0.056,0c-4.185,0-7.592,3.377-7.622,7.568
	c-0.031,4.324-5.691,4.758-7.363,4.787H148.479c-1.704-0.032-7.276-0.486-7.434-5.001c-0.148-4.209-3.712-7.483-7.887-7.35
	c-4.208,0.148-7.499,3.678-7.351,7.887c0.508,14.462,13.797,19.712,22.605,19.712h214.75
	C372.193,193.406,385.666,188.1,385.772,173.482z"/>
<path d="M10.86,320.548c4.143-0.751,6.892-4.718,6.141-8.861c-0.827-4.563-1.425-9.198-1.777-13.778
	c-0.322-4.198-4.002-7.368-8.184-7.016c-4.198,0.321-7.34,3.986-7.017,8.184c0.391,5.097,0.934,10.279,1.976,15.33
	C3.586,322.104,10.401,320.632,10.86,320.548z"/>
<path d="M495.6,222.143c-14.948-27.17-38.205-45.864-65.853-53.088c4.439-45.358,5.097-77.031,5.105-77.445
	c0.001-0.049,0.001-0.097,0.001-0.145c0-38.978-31.711-70.689-70.689-70.689c-35.179,0-64.569,25.707-69.845,59.736h-77.064
	c-5.275-34.029-34.666-59.736-69.846-59.736c-38.978,0-70.689,31.711-70.689,70.689c0,0.073,0.001,0.147,0.003,0.221
	c0.012,0.425,0.984,32.218,5.455,77.275c-20.86,5.376-39.386,17.355-53.8,34.848c-14.893,18.074-24.449,40.811-27.635,65.75
	c-0.534,4.176,2.394,8.272,6.596,8.528c4.209,0.256,8.036-2.747,8.528-6.596c5.531-43.306,31.908-76.825,67.923-87.154
	c1.247,11.294,2.705,23.214,4.408,35.529c12.021,86.889,30.332,154.299,54.487,200.71H38.758l-0.22-0.013
	c0,0-8.714,0.42-8.714-7.957c0-4.394,3.576-7.969,7.97-7.969c3.145,0,6.004,1.865,7.284,4.752c1.222,2.757,3.954,4.533,6.969,4.533
	h23.36c3.524,0,6.589-2.415,7.412-5.841c0.824-3.425-0.808-6.97-3.947-8.573c-24.524-12.515-44.032-34.919-54.93-63.084
	c-1.52-3.927-5.934-5.88-9.86-4.358c-3.927,1.519-5.878,5.934-4.358,9.859c7.076,18.29,17.437,34.447,30.295,47.573
	c-0.734-0.071-1.476-0.107-2.223-0.107c-12.801,0-23.216,10.414-23.216,23.215c0,24.385,23.89,23.217,24.029,23.217h89.61
	c-3.538,2.194-7.569,4.712-12.17,7.604c-2.877,1.807-4.209,5.301-3.268,8.566c0.94,3.264,3.928,5.512,7.325,5.512h30.652
	l-4.717,16.508c-0.813,2.847,0.095,5.908,2.33,7.849c2.234,1.941,5.391,2.415,8.096,1.212l25.643-11.397l3.879,13.964
	c0.814,2.931,3.293,5.098,6.307,5.512c0.349,0.049,0.696,0.071,1.041,0.071c2.641,0,5.126-1.374,6.519-3.675l25.359-41.898
	c1.642-2.657,3.595-6.484,3.794-9.828h53.557c0.182,3.442,2.131,7.22,3.821,9.867l25.335,41.859c1.574,2.602,4.542,4.022,7.56,3.604
	c3.014-0.414,5.492-2.581,6.307-5.511l3.879-13.965l25.643,11.397c1.008,0.448,2.116,0.659,3.14,0.657
	c4.199-0.013,7.6-3.42,7.6-7.623c0-0.928-0.166-1.817-0.47-2.641l-4.561-15.962h30.651c3.397,0,6.384-2.248,7.326-5.512
	c0.941-3.265-0.392-6.757-3.268-8.566c-4.601-2.892-8.63-5.409-12.169-7.604h89.609c0.138,0,24.029,0.534,24.029-23.216
	c0-12.801-10.415-23.215-23.217-23.215c-0.788,0-1.57,0.04-2.344,0.119c18.31-18.724,31.563-43.486,37.331-70.968
	C515.866,284.717,511.19,250.482,495.6,222.143z M287.025,420.575h-62.289c-5.394-16.405-14.245-46.071-19.282-77.688
	c-7.213-45.275-3.999-79.09,9.293-97.788c8.913-12.537,22.341-18.631,41.053-18.631c19.675,0,33.679,6.324,42.809,19.333
	C328.411,288.26,298.367,387.408,287.025,420.575z M350.711,442.257c-2.393,0-4.645,1.122-6.086,3.032
	c-1.44,1.91-1.901,4.385-1.244,6.685l3.011,10.539l-18.81-8.361c-2.027-0.903-4.343-0.874-6.35,0.071
	c-2.005,0.946-3.499,2.718-4.092,4.853l-1.52,5.469c0,0-17.295-28.629-17.618-29.322c0.207-0.617,48.949-147.09,13.086-198.184
	c-12.025-17.132-30.627-25.82-55.289-25.82c-23.673,0-41.666,8.426-53.48,25.044c-36.087,50.763,11.184,198.365,11.312,198.734
	c-0.329,0.746-17.68,29.548-17.68,29.548l-1.519-5.468c-0.594-2.138-2.088-3.909-4.092-4.855c-2.005-0.947-4.324-0.974-6.349-0.071
	l-18.811,8.361l3.012-10.539c0.657-2.3,0.196-4.775-1.244-6.685c-1.44-1.91-3.694-3.032-6.086-3.032h-13.889
	c5.022-3.028,8.949-5.322,10.672-6.194c0.077-0.019-0.067,0.043,0,0c3.927-2.481,5.845-3.976,5.845-7.413
	c0-1.398-0.388-2.748-1.083-3.917C99.788,318.712,92.157,97.349,91.966,91.352c0.061-30.52,24.909-55.33,55.443-55.33
	c29.513,0,53.833,23.064,55.364,52.508c0.21,4.051,3.557,7.227,7.613,7.227h90.801c4.057,0,7.402-3.176,7.613-7.227
	c1.533-29.444,25.852-52.508,55.364-52.508c30.545,0,55.4,24.832,55.443,55.368c-0.106,4.881-5.3,216.227-70.541,333.515
	c-0.632,1.129-0.983,2.417-0.983,3.746c0,3.473,2.347,5.478,5.72,7.359c0.012,0.007,0.026,0.007,0.04,0.01
	c1.674,0.837,5.65,3.158,10.758,6.238h-13.89V442.257z M493.845,315.409c-7.788,37.097-30.645,68.536-61.144,84.099
	c-3.139,1.602-4.77,5.146-3.947,8.573s3.888,5.841,7.412,5.841h23.36c3.016,0,5.747-1.778,6.969-4.534
	c1.28-2.886,4.138-4.751,7.284-4.751c4.394,0,7.97,3.575,7.97,7.969c0,8.504-8.93,7.97-8.93,7.97H368.595
	c25.253-50.271,43.977-119.12,55.708-204.934c1.477-10.804,2.749-21.259,3.846-31.212c22.57,6.582,41.614,22.379,54.093,45.062
	C496.076,254.638,500.196,285.151,493.845,315.409z"/>
<g>
</g>
<g>
</g>
<g>
</g>
<g>
</g>
<g>
</g>
<g>
</g>
<g>
</g>
<g>
</g>
<g>
</g>
<g>
</g>
<g>
</g>
<g>
</g>
<g>
</g>
<g>
</g>
<g>
</g>
</svg>
